ffmpeg started on 2025-05-05 at 10:36:37
Report written to "D:\Convert\FFMetrics\reports\ssim_report-6.txt"
Log level: 32
Command line:
ffmpeg -hide_banner -nostdin -i "G:\\\xc0\xed\xe8\xec\xe5\\\xce\xed\xe3\xee\xe8\xed\xe3\xe8\\!_35_\xcb\xe5\xf2\xee_2024\\JamClub-1\\\xcb\xfe\xe4\xe8 \xef\xee\xe4\xe7\xe5\xec\xe5\xeb\xfc\xff\\JamClub_Dungeon_no_Naka_no_Hito_08_1080p_HEVC.mkv" -i "G:\\\xc0\xed\xe8\xec\xe5\\\xce\xed\xe3\xee\xe8\xed\xe3\xe8\\!_35_\xcb\xe5\xf2\xee_2024\\JamClub-1\\\xcb\xfe\xe4\xe8 \xef\xee\xe4\xe7\xe5\xec\xe5\xeb\xfc\xff\\JamClub_Dungeon_no_Naka_no_Hito_08_1080p.mp4" -lavfi "[0:v]settb=AVTB,setpts=PTS-STARTPTS,format=pix_fmts=yuv420p10,fps=24000/1001,scale=1920:1080:flags=bicubic[main];[1:v]settb=AVTB,setpts=PTS-STARTPTS,format=pix_fmts=yuv420p,fps=24000/1001,scale=1920:1080:flags=bicubic[ref];[main][ref]ssim=eof_action=endall:stats_file='D\\:/Convert/FFMetrics/logs/ssim_logfile-6.txt'" -f null -
Input #0, matroska,webm, from 'G:\Аниме\Онгоинги\!_35_Лето_2024\JamClub-1\Люди подземелья\JamClub_Dungeon_no_Naka_no_Hito_08_1080p_HEVC.mkv':
  Metadata:
    COMPATIBLE_BRANDS: isomiso2avc1mp41
    MAJOR_BRAND     : isom
    MINOR_VERSION   : 512
    ENCODER         : Lavf61.7.100
  Duration: 00:24:36.70, start: -0.021000, bitrate: 1193 kb/s
  Stream #0:0: Video: hevc (Main 10), yuv420p10le(tv, bt709, progressive), 1920x1080 [SAR 1:1 DAR 16:9], 23.98 fps, 23.98 tbr, 1k tbn (default)
      Metadata:
        HANDLER_NAME    : VideoHandler
        VENDOR_ID       : [0][0][0][0]
        ENCODER         : Lavc61.19.100 libx265
        BPS             : 995009
        DURATION        : 00:24:36.599708333
        NUMBER_OF_FRAMES: 35403
        NUMBER_OF_BYTES : 183653674
        _STATISTICS_WRITING_APP: mkvpropedit v66.0.0 ('Josie') 64-bit
        _STATISTICS_WRITING_DATE_UTC: 2025-05-04 14:11:19
        _STATISTICS_TAGS: BPS DURATION NUMBER_OF_FRAMES NUMBER_OF_BYTES
  Stream #0:1(eng): Audio: aac (LC), 48000 Hz, stereo, fltp (default)
      Metadata:
        HANDLER_NAME    : SoundHandler
        VENDOR_ID       : [0][0][0][0]
        ENCODER         : Lavc61.19.100 aac
        BPS             : 194115
        DURATION        : 00:24:36.675000000
        NUMBER_OF_FRAMES: 69220
        NUMBER_OF_BYTES : 35830637
        _STATISTICS_WRITING_APP: mkvpropedit v66.0.0 ('Josie') 64-bit
        _STATISTICS_WRITING_DATE_UTC: 2025-05-04 14:11:19
        _STATISTICS_TAGS: BPS DURATION NUMBER_OF_FRAMES NUMBER_OF_BYTES
Input #1, mov,mp4,m4a,3gp,3g2,mj2, from 'G:\Аниме\Онгоинги\!_35_Лето_2024\JamClub-1\Люди подземелья\JamClub_Dungeon_no_Naka_no_Hito_08_1080p.mp4':
  Metadata:
    major_brand     : isom
    minor_version   : 512
    compatible_brands: isomiso2avc1mp41
    encoder         : Lavf60.16.100
  Duration: 00:24:36.68, start: 0.000000, bitrate: 4023 kb/s
  Stream #1:0[0x1](und): Video: h264 (High) (avc1 / 0x31637661), yuv420p(tv, bt709, progressive), 1920x1080 [SAR 1:1 DAR 16:9], 3825 kb/s, 23.98 fps, 23.98 tbr, 90k tbn (default)
      Metadata:
        handler_name    : VideoHandler
        vendor_id       : [0][0][0][0]
  Stream #1:1[0x2](eng): Audio: aac (LC) (mp4a / 0x6134706D), 48000 Hz, stereo, fltp, 191 kb/s (default)
      Metadata:
        handler_name    : SoundHandler
        vendor_id       : [0][0][0][0]
Stream mapping:
  Stream #0:0 (hevc) -> settb:default
  Stream #1:0 (h264) -> settb:default
  ssim:default -> Stream #0:0 (wrapped_avframe)
  Stream #0:1 -> #0:1 (aac (native) -> pcm_s16le (native))
Output #0, null, to 'pipe:':
  Metadata:
    COMPATIBLE_BRANDS: isomiso2avc1mp41
    MAJOR_BRAND     : isom
    MINOR_VERSION   : 512
    encoder         : Lavf61.7.100
  Stream #0:0: Video: wrapped_avframe, yuv420p10le(tv, bt709, progressive), 1920x1080 [SAR 1:1 DAR 16:9], q=2-31, 200 kb/s, 23.98 fps, 23.98 tbn
      Metadata:
        encoder         : Lavc61.19.100 wrapped_avframe
  Stream #0:1(eng): Audio: pcm_s16le, 48000 Hz, stereo, s16, 1536 kb/s (default)
      Metadata:
        HANDLER_NAME    : SoundHandler
        VENDOR_ID       : [0][0][0][0]
        _STATISTICS_TAGS: BPS DURATION NUMBER_OF_FRAMES NUMBER_OF_BYTES
        BPS             : 194115
        DURATION        : 00:24:36.675000000
        NUMBER_OF_FRAMES: 69220
        NUMBER_OF_BYTES : 35830637
        _STATISTICS_WRITING_APP: mkvpropedit v66.0.0 ('Josie') 64-bit
        _STATISTICS_WRITING_DATE_UTC: 2025-05-04 14:11:19
        encoder         : Lavc61.19.100 pcm_s16le
frame=  118 fps=0.0 q=-0.0 size=N/A time=00:00:04.92 bitrate=N/A speed=9.64x    frame=  281 fps=272 q=-0.0 size=N/A time=00:00:11.72 bitrate=N/A speed=11.3x    frame=  479 fps=311 q=-0.0 size=N/A time=00:00:19.97 bitrate=N/A speed=  13x    frame=  757 fps=367 q=-0.0 size=N/A time=00:00:31.57 bitrate=N/A speed=15.3x    frame= 1030 fps=398 q=-0.0 size=N/A time=00:00:42.95 bitrate=N/A speed=16.6x    frame= 1279 fps=412 q=-0.0 size=N/A time=00:00:53.34 bitrate=N/A speed=17.2x    frame= 1545 fps=426 q=-0.0 size=N/A time=00:01:04.43 bitrate=N/A speed=17.8x    frame= 1775 fps=429 q=-0.0 size=N/A time=00:01:14.03 bitrate=N/A speed=17.9x    frame= 2008 fps=431 q=-0.0 size=N/A time=00:01:23.75 bitrate=N/A speed=  18x    frame= 2223 fps=429 q=-0.0 size=N/A time=00:01:32.71 bitrate=N/A speed=17.9x    frame= 2408 fps=424 q=-0.0 size=N/A time=00:01:40.43 bitrate=N/A speed=17.7x    frame= 2644 fps=426 q=-0.0 size=N/A time=00:01:50.27 bitrate=N/A speed=17.8x    frame= 2842 fps=423 q=-0.0 size=N/A time=00:01:58.53 bitrate=N/A speed=17.7x    frame= 3070 fps=424 q=-0.0 size=N/A time=00:02:08.04 bitrate=N/A speed=17.7x    frame= 3245 fps=419 q=-0.0 size=N/A time=00:02:15.34 bitrate=N/A speed=17.5x    frame= 3422 fps=414 q=-0.0 size=N/A time=00:02:22.72 bitrate=N/A speed=17.3x    frame= 3635 fps=414 q=-0.0 size=N/A time=00:02:31.60 bitrate=N/A speed=17.3x    frame= 3854 fps=415 q=-0.0 size=N/A time=00:02:40.74 bitrate=N/A speed=17.3x    frame= 4124 fps=420 q=-0.0 size=N/A time=00:02:52.00 bitrate=N/A speed=17.5x    frame= 4379 fps=424 q=-0.0 size=N/A time=00:03:02.64 bitrate=N/A speed=17.7x    frame= 4658 fps=429 q=-0.0 size=N/A time=00:03:14.27 bitrate=N/A speed=17.9x    frame= 4935 fps=435 q=-0.0 size=N/A time=00:03:25.83 bitrate=N/A speed=18.1x    frame= 5215 fps=439 q=-0.0 size=N/A time=00:03:37.50 bitrate=N/A speed=18.3x    frame= 5478 fps=442 q=-0.0 size=N/A time=00:03:48.47 bitrate=N/A speed=18.4x    frame= 5756 fps=446 q=-0.0 size=N/A time=00:04:00.07 bitrate=N/A speed=18.6x    frame= 6029 fps=449 q=-0.0 size=N/A time=00:04:11.45 bitrate=N/A speed=18.7x    frame= 6301 fps=452 q=-0.0 size=N/A time=00:04:22.80 bitrate=N/A speed=18.9x    frame= 6564 fps=454 q=-0.0 size=N/A time=00:04:33.77 bitrate=N/A speed=18.9x    frame= 6805 fps=455 q=-0.0 size=N/A time=00:04:43.82 bitrate=N/A speed=  19x    frame= 7071 fps=457 q=-0.0 size=N/A time=00:04:54.91 bitrate=N/A speed=  19x    frame= 7317 fps=457 q=-0.0 size=N/A time=00:05:05.17 bitrate=N/A speed=19.1x    frame= 7595 fps=460 q=-0.0 size=N/A time=00:05:16.77 bitrate=N/A speed=19.2x    frame= 7862 fps=462 q=-0.0 size=N/A time=00:05:27.91 bitrate=N/A speed=19.3x    frame= 8119 fps=463 q=-0.0 size=N/A time=00:05:38.62 bitrate=N/A speed=19.3x    frame= 8369 fps=463 q=-0.0 size=N/A time=00:05:49.05 bitrate=N/A speed=19.3x    frame= 8603 fps=463 q=-0.0 size=N/A time=00:05:58.81 bitrate=N/A speed=19.3x    frame= 8840 fps=463 q=-0.0 size=N/A time=00:06:08.70 bitrate=N/A speed=19.3x    frame= 9095 fps=464 q=-0.0 size=N/A time=00:06:19.33 bitrate=N/A speed=19.3x    frame= 9350 fps=465 q=-0.0 size=N/A time=00:06:29.97 bitrate=N/A speed=19.4x    frame= 9628 fps=466 q=-0.0 size=N/A time=00:06:41.56 bitrate=N/A speed=19.4x    frame= 9857 fps=466 q=-0.0 size=N/A time=00:06:51.11 bitrate=N/A speed=19.4x    frame=10139 fps=468 q=-0.0 size=N/A time=00:07:02.88 bitrate=N/A speed=19.5x    frame=10408 fps=469 q=-0.0 size=N/A time=00:07:14.10 bitrate=N/A speed=19.6x    frame=10691 fps=471 q=-0.0 size=N/A time=00:07:25.90 bitrate=N/A speed=19.6x    frame=10913 fps=470 q=-0.0 size=N/A time=00:07:35.16 bitrate=N/A speed=19.6x    frame=11184 fps=471 q=-0.0 size=N/A time=00:07:46.46 bitrate=N/A speed=19.6x    frame=11458 fps=473 q=-0.0 size=N/A time=00:07:57.89 bitrate=N/A speed=19.7x    frame=11749 fps=474 q=-0.0 size=N/A time=00:08:10.03 bitrate=N/A speed=19.8x    frame=12013 fps=475 q=-0.0 size=N/A time=00:08:21.04 bitrate=N/A speed=19.8x    frame=12277 fps=476 q=-0.0 size=N/A time=00:08:32.05 bitrate=N/A speed=19.8x    frame=12533 fps=476 q=-0.0 size=N/A time=00:08:42.73 bitrate=N/A speed=19.9x    frame=12812 fps=477 q=-0.0 size=N/A time=00:08:54.36 bitrate=N/A speed=19.9x    frame=13093 fps=479 q=-0.0 size=N/A time=00:09:06.08 bitrate=N/A speed=  20x    frame=13344 fps=479 q=-0.0 size=N/A time=00:09:16.55 bitrate=N/A speed=  20x    frame=13609 fps=480 q=-0.0 size=N/A time=00:09:27.60 bitrate=N/A speed=  20x    frame=13884 fps=481 q=-0.0 size=N/A time=00:09:39.07 bitrate=N/A speed=  20x    frame=14159 fps=481 q=-0.0 size=N/A time=00:09:50.54 bitrate=N/A speed=20.1x    frame=14421 fps=482 q=-0.0 size=N/A time=00:10:01.47 bitrate=N/A speed=20.1x    frame=14655 fps=482 q=-0.0 size=N/A time=00:10:11.23 bitrate=N/A speed=20.1x    frame=14903 fps=481 q=-0.0 size=N/A time=00:10:21.57 bitrate=N/A speed=20.1x    frame=15185 fps=482 q=-0.0 size=N/A time=00:10:33.34 bitrate=N/A speed=20.1x    frame=15429 fps=482 q=-0.0 size=N/A time=00:10:43.51 bitrate=N/A speed=20.1x    frame=15689 fps=483 q=-0.0 size=N/A time=00:10:54.36 bitrate=N/A speed=20.1x    frame=15935 fps=483 q=-0.0 size=N/A time=00:11:04.62 bitrate=N/A speed=20.1x    frame=16194 fps=483 q=-0.0 size=N/A time=00:11:15.42 bitrate=N/A speed=20.1x    frame=16475 fps=484 q=-0.0 size=N/A time=00:11:27.14 bitrate=N/A speed=20.2x    frame=16718 fps=483 q=-0.0 size=N/A time=00:11:37.27 bitrate=N/A speed=20.2x    frame=16915 fps=482 q=-0.0 size=N/A time=00:11:45.49 bitrate=N/A speed=20.1x    frame=17157 fps=482 q=-0.0 size=N/A time=00:11:55.58 bitrate=N/A speed=20.1x    frame=17397 fps=482 q=-0.0 size=N/A time=00:12:05.59 bitrate=N/A speed=20.1x    frame=17637 fps=481 q=-0.0 size=N/A time=00:12:15.60 bitrate=N/A speed=20.1x    frame=17844 fps=480 q=-0.0 size=N/A time=00:12:24.24 bitrate=N/A speed=  20x    frame=18054 fps=479 q=-0.0 size=N/A time=00:12:33.00 bitrate=N/A speed=  20x    frame=18295 fps=479 q=-0.0 size=N/A time=00:12:43.05 bitrate=N/A speed=  20x    frame=18519 fps=478 q=-0.0 size=N/A time=00:12:52.39 bitrate=N/A speed=  20x    frame=18737 fps=478 q=-0.0 size=N/A time=00:13:01.48 bitrate=N/A speed=19.9x    frame=18936 fps=476 q=-0.0 size=N/A time=00:13:09.78 bitrate=N/A speed=19.9x    frame=19133 fps=475 q=-0.0 size=N/A time=00:13:18.00 bitrate=N/A speed=19.8x    frame=19388 fps=475 q=-0.0 size=N/A time=00:13:28.64 bitrate=N/A speed=19.8x    frame=19628 fps=475 q=-0.0 size=N/A time=00:13:38.65 bitrate=N/A speed=19.8x    frame=19835 fps=474 q=-0.0 size=N/A time=00:13:47.28 bitrate=N/A speed=19.8x    frame=20053 fps=474 q=-0.0 size=N/A time=00:13:56.37 bitrate=N/A speed=19.8x    frame=20265 fps=473 q=-0.0 size=N/A time=00:14:05.21 bitrate=N/A speed=19.7x    frame=20477 fps=472 q=-0.0 size=N/A time=00:14:14.06 bitrate=N/A speed=19.7x    frame=20659 fps=471 q=-0.0 size=N/A time=00:14:21.65 bitrate=N/A speed=19.6x    frame=20898 fps=471 q=-0.0 size=N/A time=00:14:31.66 bitrate=N/A speed=19.6x    frame=21085 fps=470 q=-0.0 size=N/A time=00:14:39.42 bitrate=N/A speed=19.6x    frame=21292 fps=469 q=-0.0 size=N/A time=00:14:48.05 bitrate=N/A speed=19.6x    frame=21493 fps=468 q=-0.0 size=N/A time=00:14:56.43 bitrate=N/A speed=19.5x    frame=21707 fps=467 q=-0.0 size=N/A time=00:15:05.36 bitrate=N/A speed=19.5x    frame=21931 fps=467 q=-0.0 size=N/A time=00:15:14.70 bitrate=N/A speed=19.5x    frame=22141 fps=466 q=-0.0 size=N/A time=00:15:23.46 bitrate=N/A speed=19.4x    frame=22380 fps=466 q=-0.0 size=N/A time=00:15:33.43 bitrate=N/A speed=19.4x    frame=22660 fps=467 q=-0.0 size=N/A time=00:15:45.11 bitrate=N/A speed=19.5x    frame=22880 fps=467 q=-0.0 size=N/A time=00:15:54.28 bitrate=N/A speed=19.5x    frame=23148 fps=467 q=-0.0 size=N/A time=00:16:05.46 bitrate=N/A speed=19.5x    frame=23423 fps=468 q=-0.0 size=N/A time=00:16:16.93 bitrate=N/A speed=19.5x    frame=23620 fps=467 q=-0.0 size=N/A time=00:16:25.15 bitrate=N/A speed=19.5x    frame=23892 fps=468 q=-0.0 size=N/A time=00:16:36.49 bitrate=N/A speed=19.5x    frame=24128 fps=468 q=-0.0 size=N/A time=00:16:46.33 bitrate=N/A speed=19.5x    frame=24359 fps=467 q=-0.0 size=N/A time=00:16:55.97 bitrate=N/A speed=19.5x    frame=24627 fps=468 q=-0.0 size=N/A time=00:17:07.15 bitrate=N/A speed=19.5x    frame=24896 fps=468 q=-0.0 size=N/A time=00:17:18.37 bitrate=N/A speed=19.5x    frame=25163 fps=469 q=-0.0 size=N/A time=00:17:29.50 bitrate=N/A speed=19.6x    frame=25427 fps=469 q=-0.0 size=N/A time=00:17:40.51 bitrate=N/A speed=19.6x    frame=25690 fps=470 q=-0.0 size=N/A time=00:17:51.48 bitrate=N/A speed=19.6x    frame=25934 fps=470 q=-0.0 size=N/A time=00:18:01.66 bitrate=N/A speed=19.6x    frame=26187 fps=470 q=-0.0 size=N/A time=00:18:12.21 bitrate=N/A speed=19.6x    frame=26423 fps=470 q=-0.0 size=N/A time=00:18:22.05 bitrate=N/A speed=19.6x    frame=26678 fps=470 q=-0.0 size=N/A time=00:18:32.69 bitrate=N/A speed=19.6x    frame=26944 fps=470 q=-0.0 size=N/A time=00:18:43.78 bitrate=N/A speed=19.6x    frame=27193 fps=471 q=-0.0 size=N/A time=00:18:54.17 bitrate=N/A speed=19.6x    frame=27454 fps=471 q=-0.0 size=N/A time=00:19:05.06 bitrate=N/A speed=19.6x    frame=27701 fps=471 q=-0.0 size=N/A time=00:19:15.36 bitrate=N/A speed=19.6x    frame=27980 fps=471 q=-0.0 size=N/A time=00:19:26.99 bitrate=N/A speed=19.7x    frame=28224 fps=472 q=-0.0 size=N/A time=00:19:37.17 bitrate=N/A speed=19.7x    frame=28501 fps=472 q=-0.0 size=N/A time=00:19:48.72 bitrate=N/A speed=19.7x    frame=28765 fps=472 q=-0.0 size=N/A time=00:19:59.74 bitrate=N/A speed=19.7x    frame=29043 fps=473 q=-0.0 size=N/A time=00:20:11.33 bitrate=N/A speed=19.7x    frame=29301 fps=473 q=-0.0 size=N/A time=00:20:22.09 bitrate=N/A speed=19.7x    frame=29572 fps=474 q=-0.0 size=N/A time=00:20:33.39 bitrate=N/A speed=19.8x    frame=29837 fps=474 q=-0.0 size=N/A time=00:20:44.45 bitrate=N/A speed=19.8x    frame=30082 fps=474 q=-0.0 size=N/A time=00:20:54.67 bitrate=N/A speed=19.8x    frame=30321 fps=474 q=-0.0 size=N/A time=00:21:04.63 bitrate=N/A speed=19.8x    frame=30590 fps=474 q=-0.0 size=N/A time=00:21:15.85 bitrate=N/A speed=19.8x    frame=30859 fps=475 q=-0.0 size=N/A time=00:21:27.07 bitrate=N/A speed=19.8x    frame=31132 fps=475 q=-0.0 size=N/A time=00:21:38.46 bitrate=N/A speed=19.8x    frame=31337 fps=474 q=-0.0 size=N/A time=00:21:47.01 bitrate=N/A speed=19.8x    frame=31619 fps=475 q=-0.0 size=N/A time=00:21:58.77 bitrate=N/A speed=19.8x    frame=31873 fps=475 q=-0.0 size=N/A time=00:22:09.36 bitrate=N/A speed=19.8x    frame=32148 fps=476 q=-0.0 size=N/A time=00:22:20.83 bitrate=N/A speed=19.8x    frame=32387 fps=476 q=-0.0 size=N/A time=00:22:30.80 bitrate=N/A speed=19.8x    frame=32664 fps=476 q=-0.0 size=N/A time=00:22:42.36 bitrate=N/A speed=19.9x    frame=32937 fps=476 q=-0.0 size=N/A time=00:22:53.74 bitrate=N/A speed=19.9x    frame=33175 fps=476 q=-0.0 size=N/A time=00:23:03.67 bitrate=N/A speed=19.9x    frame=33393 fps=476 q=-0.0 size=N/A time=00:23:12.76 bitrate=N/A speed=19.8x    frame=33534 fps=474 q=-0.0 size=N/A time=00:23:18.64 bitrate=N/A speed=19.8x    frame=33698 fps=473 q=-0.0 size=N/A time=00:23:25.48 bitrate=N/A speed=19.7x    frame=33864 fps=472 q=-0.0 size=N/A time=00:23:32.41 bitrate=N/A speed=19.7x    frame=34055 fps=471 q=-0.0 size=N/A time=00:23:40.37 bitrate=N/A speed=19.7x    frame=34222 fps=470 q=-0.0 size=N/A time=00:23:47.34 bitrate=N/A speed=19.6x    frame=34395 fps=469 q=-0.0 size=N/A time=00:23:54.55 bitrate=N/A speed=19.6x    frame=34555 fps=468 q=-0.0 size=N/A time=00:24:01.23 bitrate=N/A speed=19.5x    frame=34691 fps=467 q=-0.0 size=N/A time=00:24:06.90 bitrate=N/A speed=19.5x    frame=34883 fps=466 q=-0.0 size=N/A time=00:24:14.91 bitrate=N/A speed=19.4x    frame=35106 fps=466 q=-0.0 size=N/A time=00:24:24.21 bitrate=N/A speed=19.4x    frame=35271 fps=465 q=-0.0 size=N/A time=00:24:31.09 bitrate=N/A speed=19.4x    [Parsed_ssim_10 @ 000002a8e2ae7e80] SSIM Y:0.995135 (23.128980) U:0.994351 (22.480329) V:0.994502 (22.598141) All:0.994899 (22.923225)
[out#0/null @ 000002a8e23b0f40] video:15212KiB audio:276880KiB subtitle:0KiB other streams:0KiB global headers:0KiB muxing overhead: unknown
frame=35403 fps=465 q=-0.0 Lsize=N/A time=00:24:36.60 bitrate=N/A speed=19.4x    
